<svg xmlns="http://www.w3.org/2000/svg" version="1.1" xmlns:xlink="http://www.w3.org/1999/xlink" xmlns:svgjs="http://svgjs.dev/svgjs" width="1000" height="277" viewBox="0 0 1000 277"><g transform="matrix(1,0,0,1,-0.15221238938056558,0.26014110702666926)"><svg viewBox="0 0 339 94" data-background-color="#ffffff" preserveAspectRatio="xMidYMid meet" height="277" width="1000" xmlns="http://www.w3.org/2000/svg" xmlns:xlink="http://www.w3.org/1999/xlink"><g id="tight-bounds" transform="matrix(1,0,0,1,0.05160000000000764,-0.08827893162637679)"><svg viewBox="0 0 338.8968 94.17655747074068" height="94.17655747074068" width="338.8968"><g><svg viewBox="0 0 338.8968 94.17655747074068" height="94.17655747074068" width="338.8968"><g><svg viewBox="0 0 338.8968 94.17655747074068" height="94.17655747074068" width="338.8968"><g id="textblocktransform"><svg viewBox="0 0 338.8968 94.17655747074068" height="94.17655747074068" width="338.8968" id="textblock"><g><svg viewBox="0 0 338.8968 67.8751" height="67.8751" width="338.8968"><g><svg><g></g><g></g></svg></g><g><svg><g><svg></svg></g><g></g></svg></g><g id="text-0"><svg viewBox="0 0 338.8968 67.8751" height="67.8751" width="338.8968"><g transform="matrix(1,0,0,1,0,0)"><svg width="254.9968" viewBox="1.75 -36 157.5800018310547 41.95000076293945" height="67.8751" data-palette-color="#a437db"><path d="M25.8 5.95L25.8 5.95Q23.5 5.95 21.55 4.67 19.6 3.4 17.8 1.85L17.8 1.85Q16.6 2.45 15.35 2.8 14.1 3.15 12.8 3.15L12.8 3.15Q11.1 3.15 10 2.63 8.9 2.1 8.33 1.35 7.75 0.6 7.53-0.13 7.3-0.85 7.3-1.25L7.3-1.25Q7.3-2.1 8.13-2.98 8.95-3.85 10.95-3.85L10.95-3.85Q13-3.85 14.95-2.88 16.9-1.9 18.9-0.65L18.9-0.65Q21.15-2.65 22.88-5.75 24.6-8.85 25.78-12.4 26.95-15.95 27.58-19.38 28.2-22.8 28.2-25.45L28.2-25.45Q28.2-29.55 26.65-32.1 25.1-34.65 21.6-34.65L21.6-34.65Q18.7-34.65 16.2-32.93 13.7-31.2 11.68-28.3 9.65-25.4 8.2-21.83 6.75-18.25 5.98-14.45 5.2-10.65 5.2-7.2L5.2-7.2Q5.2-6.15 5.3-5.1 5.4-4.05 5.6-3L5.6-3Q4.05-3 3.23-4 2.4-5 2.08-6.58 1.75-8.15 1.75-9.95L1.75-9.95Q1.75-13.7 2.75-17.43 3.75-21.15 5.58-24.5 7.4-27.85 9.88-30.43 12.35-33 15.33-34.5 18.3-36 21.55-36L21.55-36Q26.35-36 29.03-32.73 31.7-29.45 31.7-23.85L31.7-23.85Q31.7-20.7 30.85-17.28 30-13.85 28.48-10.58 26.95-7.3 24.9-4.5 22.85-1.7 20.4 0.2L20.4 0.2Q22.1 1.15 23.93 1.83 25.75 2.5 27.8 2.5L27.8 2.5Q28.9 2.5 29.43 2.3 29.95 2.1 30.7 1.9L30.7 1.9Q30.2 3.65 29.33 4.53 28.45 5.4 27.53 5.68 26.6 5.95 25.8 5.95ZM12.8 1.9L12.8 1.9Q13.85 1.9 14.83 1.63 15.8 1.35 16.7 0.85L16.7 0.85Q15.15-0.5 13.63-1.53 12.1-2.55 10.45-2.55L10.45-2.55Q9.3-2.55 8.95-2.08 8.6-1.6 8.6-1.2L8.6-1.2Q8.6-0.75 8.95-0.03 9.3 0.7 10.2 1.3 11.1 1.9 12.8 1.9ZM37.15 1.5L37.15 1.5Q35.45 1.5 34.42-0.03 33.4-1.55 33.4-3.55L33.4-3.55Q33.4-5 33.87-6.9 34.35-8.8 35.05-10.65 35.75-12.5 36.5-13.7 37.25-14.9 37.8-14.9L37.8-14.9Q38.05-14.9 38.65-14.63 39.25-14.35 39.65-13.9L39.65-13.9Q39.1-13.05 38.3-11.3 37.5-9.55 36.9-7.55 36.3-5.55 36.3-3.85L36.3-3.85Q36.3-3.45 36.4-2.63 36.5-1.8 36.9-1.15 37.3-0.5 38.1-0.5L38.1-0.5Q39.05-0.5 40.05-1.48 41.05-2.45 42.07-4 43.1-5.55 44.05-7.35 45-9.15 45.82-10.8 46.65-12.45 47.2-13.55L47.2-13.55Q47.5-13.5 48.07-13.35 48.65-13.2 49.12-12.95 49.6-12.7 49.6-12.25L49.6-12.25Q49.6-12.05 49.1-10.93 48.6-9.8 47.92-8.18 47.25-6.55 46.75-4.9 46.25-3.25 46.25-2L46.25-2Q46.25-1.1 46.62-0.55 47 0 47.9 0L47.9 0Q48.95 0 50.45-0.95 51.95-1.9 53.5-3.73 55.05-5.55 56.25-8.1L56.25-8.1 56.9-7.65Q55.85-4.95 54.15-2.88 52.45-0.8 50.55 0.35 48.65 1.5 46.85 1.5L46.85 1.5Q45.55 1.5 44.77 1 44 0.5 43.67-0.35 43.35-1.2 43.35-2.2L43.35-2.2Q43.35-2.8 43.45-3.43 43.55-4.05 43.7-4.7L43.7-4.7Q42.8-3.05 41.75-1.63 40.7-0.2 39.55 0.65 38.4 1.5 37.15 1.5ZM58.75 1.6L58.75 1.6Q56.59 1.6 55.7 0.28 54.8-1.05 54.8-2.95L54.8-2.95Q54.8-4.5 55.3-6.15 55.8-7.8 56.62-9.25 57.45-10.7 58.47-11.6 59.5-12.5 60.55-12.5L60.55-12.5Q60.8-12.5 61.07-12.43 61.34-12.35 61.59-12.25L61.59-12.25Q61.15-11.85 60.52-10.78 59.9-9.7 59.34-8.33 58.8-6.95 58.42-5.6 58.05-4.25 58.05-3.3L58.05-3.3Q58.05-1.8 58.55-1.13 59.05-0.45 59.84-0.45L59.84-0.45Q60.9-0.45 62.34-1.58 63.8-2.7 65.2-4.45L65.2-4.45Q63.8-5.6 63.02-7.48 62.25-9.35 62.25-11.3L62.25-11.3Q62.25-12.95 62.82-14.4 63.4-15.85 64.5-16.73 65.59-17.6 67.15-17.6L67.15-17.6Q69.2-17.6 69.9-16.5 70.59-15.4 70.59-13.75L70.59-13.75Q70.59-11.8 69.65-9.43 68.7-7.05 67.25-4.85L67.25-4.85Q68.15-4.35 69.15-4.35L69.15-4.35Q69.95-4.35 70.95-4.67 71.95-5 72.92-5.8 73.9-6.6 74.5-7.95L74.5-7.95 75.09-7.45Q74.09-5.1 72.27-4.13 70.45-3.15 68.8-3.15L68.8-3.15Q68.15-3.15 67.55-3.28 66.95-3.4 66.4-3.65L66.4-3.65Q64.7-1.4 62.67 0.1 60.65 1.6 58.75 1.6ZM66.09-5.75L66.09-5.75Q67.34-7.6 68.17-9.63 69-11.65 69-13.45L69-13.45Q69-14.9 68.57-15.58 68.15-16.25 67.5-16.25L67.5-16.25Q66.5-16.25 65.45-14.8 64.39-13.35 64.39-11.15L64.39-11.15Q64.39-9.7 64.82-8.22 65.25-6.75 66.09-5.75ZM77.79 2.3L77.79 2.3Q75.64 2.3 74.49 1.05 73.34-0.2 73.34-2.65L73.34-2.65Q73.34-4.85 74.17-8.08 74.99-11.3 76.24-14.7L76.24-14.7Q75.74-14.8 75.29-14.88 74.84-14.95 74.44-15.1L74.44-15.1 74.44-16Q74.84-15.95 75.39-15.9 75.94-15.85 76.64-15.8L76.64-15.8Q77.69-18.5 78.89-21.03 80.09-23.55 81.27-25.53 82.44-27.5 83.52-28.68 84.59-29.85 85.34-29.85L85.34-29.85Q85.74-29.85 86.07-29.58 86.39-29.3 86.39-28.75L86.39-28.75Q86.39-27.9 85.34-25.98 84.29-24.05 82.74-21.4 81.19-18.75 79.74-15.65L79.74-15.65Q80.19-15.65 80.67-15.65 81.14-15.65 81.59-15.65L81.59-15.65Q83.24-15.65 85.07-15.7 86.89-15.75 88.74-15.95L88.74-15.95 88.74-15.05Q85.99-14.75 83.82-14.6 81.64-14.45 79.94-14.45L79.94-14.45Q79.74-14.45 79.57-14.45 79.39-14.45 79.19-14.45L79.19-14.45Q78.04-11.8 77.24-9 76.44-6.2 76.44-3.55L76.44-3.55Q76.44-1.4 77.09-0.48 77.74 0.45 79.24 0.45L79.24 0.45Q81.84 0.45 84.34-1.85 86.84-4.15 88.74-8.1L88.74-8.1 89.39-7.6Q88.19-4.8 86.37-2.55 84.54-0.3 82.34 1 80.14 2.3 77.79 2.3ZM90.19 2.35L90.19 2.35Q88.64 2.35 87.57 1.33 86.49 0.3 86.49-1.8L86.49-1.8Q86.49-3.6 87.29-5.68 88.09-7.75 89.49-9.78 90.89-11.8 92.67-13.48 94.44-15.15 96.42-16.15 98.39-17.15 100.34-17.15L100.34-17.15Q102.29-17.15 103.59-16.13 104.89-15.1 104.89-13.4L104.89-13.4Q104.89-12.15 104.22-11.7 103.54-11.25 102.44-11.25L102.44-11.25Q102.54-11.65 102.62-12.13 102.69-12.6 102.69-13L102.69-13Q102.69-14.15 102.14-14.98 101.59-15.8 100.24-15.8L100.24-15.8Q98.84-15.8 97.39-14.83 95.94-13.85 94.59-12.23 93.24-10.6 92.19-8.7 91.14-6.8 90.54-4.95 89.94-3.1 89.94-1.65L89.94-1.65Q89.94 0.3 91.29 0.3L91.29 0.3Q92.44 0.3 93.79-0.78 95.14-1.85 96.57-3.53 97.99-5.2 99.29-7 100.59-8.8 101.59-10.3L101.59-10.3Q101.79-10.6 101.84-10.6L101.84-10.6Q102.14-10.55 102.62-10.4 103.09-10.25 103.44-10 103.79-9.75 103.79-9.35L103.79-9.35Q103.79-8.9 103.34-8.13 102.89-7.35 102.34-6.35 101.79-5.35 101.34-4.33 100.89-3.3 100.89-2.4L100.89-2.4Q100.89-1.65 101.29-0.93 101.69-0.2 102.59-0.2L102.59-0.2Q103.94-0.2 106.14-2.18 108.34-4.15 110.59-8.1L110.59-8.1 111.09-7.6Q110.04-4.9 108.39-2.85 106.74-0.8 104.87 0.35 102.99 1.5 101.19 1.5L101.19 1.5Q99.34 1.5 98.47 0.4 97.59-0.7 97.59-2L97.59-2Q97.59-2.3 97.64-2.68 97.69-3.05 97.74-3.45L97.74-3.45Q95.59-0.55 93.82 0.9 92.04 2.35 90.19 2.35ZM114.24 3.65L114.24 3.65Q111.64 3.65 110.36 1.95 109.09 0.25 109.09-2.65L109.09-2.65Q109.09-5.15 109.94-8.55 110.79-11.95 112.19-15.68 113.59-19.4 115.31-22.95 117.04-26.5 118.79-29.38 120.54-32.25 122.09-33.98 123.64-35.7 124.64-35.7L124.64-35.7Q125.49-35.7 125.86-34.65 126.24-33.6 126.24-32.55L126.24-32.55Q126.24-31.15 125.64-29.15 125.04-27.15 123.94-24.88 122.84-22.6 121.39-20.4 119.94-18.2 118.26-16.38 116.59-14.55 114.84-13.5L114.84-13.5Q114.54-12.95 113.96-11.23 113.39-9.5 112.91-7.28 112.44-5.05 112.44-2.95L112.44-2.95Q112.44-0.9 113.06 0.43 113.69 1.75 115.19 1.75L115.19 1.75Q116.64 1.75 118.19 0.58 119.74-0.6 120.69-2.45L120.69-2.45Q118.84-3.4 117.94-5.23 117.04-7.05 117.04-8.9L117.04-8.9Q117.04-11.3 118.29-12.75 119.54-14.2 121.24-14.2L121.24-14.2Q122.69-14.2 123.54-13.03 124.39-11.85 124.39-9.6L124.39-9.6Q124.39-7.95 123.94-6.2 123.49-4.45 122.64-2.8L122.64-2.8Q122.94-2.75 123.26-2.7 123.59-2.65 123.94-2.65L123.94-2.65Q125.74-2.65 126.94-3.53 128.14-4.4 128.96-5.68 129.79-6.95 130.34-8.1L130.34-8.1 130.94-7.45Q129.54-4 127.61-2.88 125.69-1.75 123.79-1.75L123.79-1.75Q123.39-1.75 122.99-1.8 122.59-1.85 122.19-1.9L122.19-1.9Q120.84 0.4 118.86 2.02 116.89 3.65 114.24 3.65ZM121.19-3.45L121.19-3.45Q121.74-4.6 122.04-5.88 122.34-7.15 122.34-8.5L122.34-8.5Q122.34-10.25 121.86-11.25 121.39-12.25 120.69-12.25L120.69-12.25Q119.94-12.25 119.36-11.23 118.79-10.2 118.79-8.65L118.79-8.65Q118.79-7.3 119.34-5.8 119.89-4.3 121.19-3.45ZM115.39-15.45L115.39-15.45Q116.79-16.55 118.11-18.25 119.44-19.95 120.59-21.88 121.74-23.8 122.64-25.65 123.54-27.5 124.04-29 124.54-30.5 124.54-31.25L124.54-31.25Q124.54-31.5 124.49-31.58 124.44-31.65 124.34-31.65L124.34-31.65Q123.94-31.65 122.81-30.23 121.69-28.8 120.31-26.43 118.94-24.05 117.59-21.18 116.24-18.3 115.39-15.45ZM133.44 1.5L133.44 1.5Q131.29 1.5 130.36 0.03 129.44-1.45 129.44-3.65L129.44-3.65Q129.44-6.05 130.34-9.35 131.24-12.65 132.71-16.3 134.19-19.95 135.94-23.43 137.69-26.9 139.44-29.75 141.19-32.6 142.66-34.3 144.14-36 144.99-36L144.99-36Q145.54-36 145.89-35.38 146.24-34.75 146.44-33.88 146.64-33 146.64-32.3L146.64-32.3Q146.64-30.95 145.96-28.78 145.29-26.6 144.06-23.93 142.84-21.25 141.16-18.53 139.49-15.8 137.51-13.3 135.54-10.8 133.34-9L133.34-9Q133.04-7.65 132.86-6.38 132.69-5.1 132.69-3.95L132.69-3.95Q132.69-2 133.24-1.05 133.79-0.1 134.89-0.1L134.89-0.1Q136.24-0.1 137.56-1.3 138.89-2.5 140.06-4.33 141.24-6.15 142.09-8.1L142.09-8.1 142.84-7.7Q140.84-3.45 138.49-0.98 136.14 1.5 133.44 1.5ZM133.79-10.7L133.79-10.7Q135.54-12.45 137.19-14.73 138.84-17 140.26-19.45 141.69-21.9 142.79-24.2 143.89-26.5 144.49-28.33 145.09-30.15 145.09-31.15L145.09-31.15Q145.09-31.65 144.96-31.8 144.84-31.95 144.74-31.95L144.74-31.95Q144.34-31.95 143.36-30.68 142.39-29.4 141.09-27.25 139.79-25.1 138.44-22.35 137.09-19.6 135.86-16.6 134.64-13.6 133.79-10.7ZM146.48 2.2L146.48 2.2Q143.43 2.2 141.91 0.53 140.38-1.15 140.38-3.6L140.38-3.6Q140.38-5.85 141.51-8.35 142.63-10.85 144.51-13.05 146.38-15.25 148.63-16.63 150.88-18 153.08-18L153.08-18Q154.23-18 155.21-17.4 156.18-16.8 156.18-14.95L156.18-14.95Q156.18-13.05 155.06-11.38 153.93-9.7 152.11-8.4 150.28-7.1 148.11-6.28 145.93-5.45 143.78-5.25L143.78-5.25Q143.68-4.75 143.63-4.3 143.58-3.85 143.58-3.45L143.58-3.45Q143.58-2.7 143.76-1.95 143.93-1.2 144.38-0.58 144.83 0.05 145.61 0.4 146.38 0.75 147.53 0.75L147.53 0.75Q149.68 0.75 151.78-0.48 153.88-1.7 155.68-3.7 157.48-5.7 158.73-8.1L158.73-8.1 159.33-7.65Q157.98-4.65 155.91-2.45 153.83-0.25 151.41 0.98 148.98 2.2 146.48 2.2ZM144.03-6.2L144.03-6.2Q145.38-6.65 147.08-7.53 148.78-8.4 150.36-9.6 151.93-10.8 152.96-12.25 153.98-13.7 153.98-15.3L153.98-15.3Q153.98-15.85 153.78-16.15 153.58-16.45 152.93-16.45L152.93-16.45Q151.73-16.45 150.38-15.53 149.03-14.6 147.78-13.1 146.53-11.6 145.53-9.8 144.53-8 144.03-6.2Z" opacity="1" transform="matrix(1,0,0,1,0,0)" fill="#a437db" class="undefined-text-0" data-fill-palette-color="primary"></path></svg></g><g><svg xmlns="http://www.w3.org/2000/svg" xmlns:xlink="http://www.w3.org/1999/xlink" version="1.1" x="271.0217" y="0" viewBox="14.5 14.5 72 72" enable-background="new 0 0 100 100" xml:space="preserve" height="67.8751" width="67.8751" class="icon-s-0" data-fill-palette-color="accent" id="s-0"><g fill="#8b3c7f" data-fill-palette-color="accent"><path fill="#8b3c7f" d="M14.5 68.5v18h18v-9-9h-9c0-4.971 4.029-9 9-9v-9C22.559 50.5 14.5 58.559 14.5 68.5z" data-fill-palette-color="accent"></path><path fill="#8b3c7f" d="M41.5 68.5v18h18v-9-9h-9c0-4.971 4.029-9 9-9v-9C49.559 50.5 41.5 58.559 41.5 68.5z" data-fill-palette-color="accent"></path><path fill="#8b3c7f" d="M68.5 14.5v9 9h9c0 4.971-4.029 9-9 9v9c9.941 0 18-8.059 18-18v-18H68.5z" data-fill-palette-color="accent"></path><path fill="#8b3c7f" d="M41.5 23.5v9h9c0 4.971-4.029 9-9 9v9c9.941 0 18-8.059 18-18v-18h-18V23.5z" data-fill-palette-color="accent"></path></g></svg></g></svg></g></svg></g><g transform="matrix(1,0,0,1,64.72928879999999,83.8987821076)"><svg viewBox="0 0 209.4382224 10.277775363140677" height="10.277775363140677" width="209.4382224"><g transform="matrix(1,0,0,1,0,0)"><svg width="209.4382224" viewBox="2.0299999713897705 -42.189998626708984 895.43994140625 43.94999694824219" height="10.277775363140677" data-palette-color="#b19dd0"><path d="M30.74-17.77L30.74-17.77 30.74-40.43 32.5-40.43 32.5-17.77Q32.5-14.06 29.57-11.43 26.64-8.79 22.53-8.79 18.43-8.79 15.5-11.43 12.57-14.06 12.57-17.77L12.57-17.77 12.57-40.43 14.33-40.43 14.33-17.77Q14.33-14.79 16.74-12.67 19.14-10.55 22.53-10.55 25.93-10.55 28.33-12.67 30.74-14.79 30.74-17.77ZM34.25-17.77L34.25-17.77 34.25-40.43 36.01-40.43 36.01-17.77Q36.01-15.23 34.94-12.93 33.86-10.62 32.06-8.94 30.25-7.25 27.76-6.26 25.27-5.27 22.53-5.27 19.8-5.27 17.31-6.26 14.82-7.25 13.01-8.94 11.21-10.62 10.13-12.93 9.06-15.23 9.06-17.77L9.06-17.77 9.06-40.43 10.82-40.43 10.82-17.77Q10.82-14.87 12.39-12.39 13.96-9.91 16.66-8.47 19.36-7.03 22.53-7.03 25.71-7.03 28.41-8.47 31.1-9.91 32.68-12.39 34.25-14.87 34.25-17.77ZM37.77-17.77L37.77-17.77 37.77-40.43 39.53-40.43 39.53-17.77Q39.53-14.53 38.17-11.56 36.82-8.59 34.55-6.45 32.28-4.3 29.13-3.03 25.98-1.76 22.53-1.76 19.09-1.76 15.94-3.03 12.79-4.3 10.52-6.45 8.25-8.59 6.9-11.56 5.54-14.53 5.54-17.77L5.54-17.77 5.54-40.43 7.3-40.43 7.3-17.77Q7.3-13.92 9.35-10.63 11.4-7.35 14.9-5.43 18.41-3.52 22.53-3.52 26.66-3.52 30.16-5.43 33.67-7.35 35.72-10.63 37.77-13.92 37.77-17.77ZM41.28-17.77L41.28-17.77 41.28-40.43 43.04-40.43 43.04-17.77Q43.04-12.5 40.28-8 37.52-3.49 32.8-0.87 28.08 1.76 22.53 1.76 16.99 1.76 12.27-0.87 7.54-3.49 4.79-8 2.03-12.5 2.03-17.77L2.03-17.77 2.03-40.43 3.78-40.43 3.78-17.77Q3.78-14.18 5.27-10.89 6.76-7.59 9.28-5.21 11.79-2.83 15.27-1.42 18.75 0 22.53 0 26.32 0 29.8-1.42 33.28-2.83 35.79-5.21 38.31-7.59 39.79-10.89 41.28-14.18 41.28-17.77ZM75.27-35.16L75.27-14.18 73.51-17.38 73.51-35.16 75.27-35.16ZM78.78-35.16L78.78-8.11 77.02-11.08 77.02-35.16 78.78-35.16ZM54.56 0L54.56-20.97 56.32-17.77 56.32 0 54.56 0ZM51.05 0L51.05-27.29 52.81-24.07 52.81 0 51.05 0ZM72.02 0L51.66-35.16 53.71-35.16 74.07 0 72.02 0ZM76.12 0L55.81-35.16 57.88-35.16 78.22 0 76.12 0ZM80.22 0L59.93-35.16 61.98-35.16 80.54-3.05 80.54-35.16 82.3-35.16 82.3 0 80.22 0ZM67.89 0L49.29-32.13 49.29 0 47.53 0 47.53-35.16 49.63-35.16 69.92 0 67.89 0ZM86.88 0L86.88-35.16 88.64-35.16 88.64 0 86.88 0ZM97.43 0L97.43-35.16 99.19-35.16 99.19-8.79 112.15-8.79 112.15-7.03 99.19-7.03 99.19-5.27 112.15-5.27 112.15-3.52 99.19-3.52 99.19-1.76 112.15-1.76 112.15 0 97.43 0ZM93.92 0L93.92-35.16 95.67-35.16 95.67 0 93.92 0ZM90.4 0L90.4-35.16 92.16-35.16 92.16 0 90.4 0ZM124.82-35.16L124.82 0 123.06 0 123.06-35.16 124.82-35.16ZM121.31-35.16L121.31 0 119.55 0 119.55-35.16 121.31-35.16ZM117.79-35.16L117.79 0 116.03 0 116.03-35.16 117.79-35.16ZM128.34-13.21L128.34-8.79 145.16-8.79 145.16-7.03 128.34-7.03 128.34-5.27 145.16-5.27 145.16-3.52 128.34-3.52 128.34-1.76 145.16-1.76 145.16 0 126.58 0 126.58-35.16 145.16-35.16 145.16-33.4 128.34-33.4 128.34-31.64 145.16-31.64 145.16-29.88 128.34-29.88 128.34-28.13 145.16-28.13 145.16-26.37 128.34-26.37 128.34-22 144.18-22 144.18-20.24 128.34-20.24 128.34-18.48 144.18-18.48 144.18-16.72 128.34-16.72 128.34-14.97 144.18-14.97 144.18-13.21 128.34-13.21ZM174.33 0L174.33-17.33Q174.33-20.46 172.4-22.17 170.47-23.88 167.3-23.88L167.3-23.88Q164.61-23.88 162.69-22.02 160.76-20.17 160.76-17.58L160.76-17.58Q160.76-16.11 161.15-14.95 161.54-13.79 162.21-13.02 162.88-12.26 163.81-11.76 164.74-11.25 165.75-11.04 166.76-10.82 167.91-10.82L167.91-10.82Q170.69-10.82 172.99-12.18L172.99-12.18 172.99-10.42Q170.62-9.18 167.89-9.18L167.89-9.18Q166.13-9.18 164.58-9.66 163.03-10.13 161.76-11.1 160.49-12.06 159.74-13.73 159-15.41 159-17.58L159-17.58Q159-20.95 161.37-23.29 163.74-25.63 167.3-25.63L167.3-25.63Q171.23-25.63 173.66-23.43 176.09-21.22 176.09-17.33L176.09-17.33 176.09 0 174.33 0ZM179.6-17.33L179.6-17.33 179.6 0 177.85 0 177.85-17.33Q177.85-21.95 174.89-24.67 171.94-27.39 167.3-27.39L167.3-27.39Q163-27.39 160.12-24.54 157.24-21.68 157.24-17.58L157.24-17.58Q157.24-15.09 158.11-13.11 158.97-11.13 160.46-9.94 161.95-8.74 163.8-8.12 165.64-7.5 167.69-7.5L167.69-7.5Q170.47-7.5 172.99-8.79L172.99-8.79 172.99-6.93Q170.35-5.83 167.67-5.83L167.67-5.83Q165.25-5.83 163.08-6.58 160.9-7.32 159.19-8.75 157.49-10.18 156.48-12.46 155.48-14.75 155.48-17.58L155.48-17.58Q155.48-22.39 158.89-25.77 162.29-29.15 167.3-29.15L167.3-29.15Q170.82-29.15 173.6-27.72 176.38-26.29 177.99-23.58 179.6-20.87 179.6-17.33ZM183.12-17.33L183.12-17.33 183.12 0 181.36 0 181.36-17.33Q181.36-21.36 179.52-24.48 177.68-27.59 174.48-29.25 171.28-30.91 167.3-30.91L167.3-30.91Q163.52-30.91 160.39-29.11 157.27-27.32 155.5-24.27 153.73-21.22 153.73-17.58L153.73-17.58Q153.73-14.45 154.87-11.88 156.02-9.3 157.96-7.64 159.9-5.98 162.38-5.07 164.86-4.15 167.57-4.15L167.57-4.15Q170.33-4.15 172.99-5.3L172.99-5.3 172.99-3.52Q170.2-2.47 167.52-2.47L167.52-2.47Q163.3-2.47 159.76-4.37 156.22-6.27 154.09-9.77 151.97-13.26 151.97-17.58L151.97-17.58Q151.97-20.65 153.15-23.44 154.34-26.22 156.36-28.25 158.39-30.27 161.24-31.47 164.1-32.67 167.3-32.67L167.3-32.67Q171.77-32.67 175.37-30.76 178.97-28.86 181.04-25.34 183.12-21.83 183.12-17.33ZM186.64-17.33L186.64-17.33 186.64 0 184.88 0 184.88-17.33Q184.88-22.31 182.56-26.23 180.24-30.15 176.24-32.29 172.23-34.42 167.3-34.42L167.3-34.42Q162.56-34.42 158.63-32.15 154.7-29.88 152.46-26.01 150.21-22.14 150.21-17.58L150.21-17.58Q150.21-14.58 151.17-11.88 152.14-9.18 153.81-7.17 155.48-5.15 157.67-3.69 159.85-2.22 162.38-1.46 164.91-0.71 167.52-0.71L167.52-0.71Q170.4-0.71 172.99-1.81L172.99-1.81 172.99 0Q170.28 0.95 167.42 0.95L167.42 0.95Q164.47 0.95 161.67 0.12 158.88-0.71 156.5-2.33 154.12-3.96 152.31-6.16 150.5-8.37 149.48-11.33 148.45-14.28 148.45-17.58L148.45-17.58Q148.45-21.36 149.88-24.79 151.31-28.22 153.79-30.73 156.26-33.23 159.79-34.7 163.32-36.18 167.3-36.18L167.3-36.18Q171.35-36.18 174.92-34.81 178.48-33.45 181.07-31.02 183.66-28.59 185.15-25.05 186.64-21.51 186.64-17.33ZM207.14-16.72L207.14-16.72 204.36-16.72Q199.23-16.72 196.47-18.81 193.71-20.9 193.71-24.56L193.71-24.56Q193.71-27.98 196.96-30.26 200.21-32.54 206.07-32.54L206.07-32.54Q209.97-32.54 213.35-31.47 216.74-30.4 218.98-28.44L218.98-28.44 217.61-27.34Q215.61-28.98 212.59-29.88 209.56-30.79 206.07-30.79L206.07-30.79Q200.92-30.79 198.19-29.03 195.47-27.27 195.47-24.56L195.47-24.56Q195.47-21.63 197.7-20.06 199.94-18.48 204.36-18.48L204.36-18.48 207.04-18.48Q212.24-18.48 215.01-16.39 217.79-14.31 217.79-10.64L217.79-10.64Q217.79-7.23 214.54-4.94 211.29-2.66 205.43-2.66L205.43-2.66Q201.53-2.66 198.14-3.74 194.76-4.81 192.52-6.76L192.52-6.76 193.88-7.86Q195.89-6.23 198.91-5.32 201.94-4.42 205.43-4.42L205.43-4.42Q210.58-4.42 213.31-6.18 216.03-7.93 216.03-10.64L216.03-10.64Q216.03-13.57 213.79-15.15 211.56-16.72 207.14-16.72ZM207.14-13.21L207.14-13.21 204.36-13.21Q197.57-13.21 193.88-16.3 190.2-19.38 190.2-24.56L190.2-24.56Q190.2-26.93 191.25-29 192.3-31.08 194.26-32.65 196.23-34.23 199.28-35.14 202.33-36.06 206.07-36.06L206.07-36.06Q210.78-36.06 214.88-34.63 218.98-33.2 221.72-30.64L221.72-30.64 220.3-29.59Q217.81-31.84 214.07-33.07 210.34-34.3 206.07-34.3L206.07-34.3Q199.47-34.3 195.72-31.52 191.96-28.74 191.96-24.56L191.96-24.56Q191.96-20.14 195.18-17.55 198.4-14.97 204.36-14.97L204.36-14.97 207.04-14.97Q214.27-14.97 214.27-10.64L214.27-10.64Q214.27-8.69 212.06-7.43 209.85-6.18 205.43-6.18L205.43-6.18Q202.33-6.18 199.67-6.9 197.01-7.62 195.28-8.96L195.28-8.96 196.67-10.03Q199.72-7.93 205.43-7.93L205.43-7.93Q209.09-7.93 210.8-8.69 212.51-9.45 212.51-10.64L212.51-10.64Q212.51-12.04 211.32-12.62 210.12-13.21 207.14-13.21ZM207.14-20.24L207.14-20.24 204.36-20.24Q197.23-20.24 197.23-24.56L197.23-24.56Q197.23-26.51 199.44-27.77 201.65-29.03 206.07-29.03L206.07-29.03Q209.17-29.03 211.83-28.31 214.49-27.59 216.22-26.25L216.22-26.25 214.83-25.17Q211.78-27.27 206.07-27.27L206.07-27.27Q202.4-27.27 200.7-26.51 198.99-25.76 198.99-24.56L198.99-24.56Q198.99-23.17 200.18-22.58 201.38-22 204.36-22L204.36-22 207.14-22Q213.93-22 217.61-18.91 221.3-15.82 221.3-10.64L221.3-10.64Q221.3-8.28 220.25-6.2 219.2-4.13 217.24-2.55 215.27-0.98 212.22-0.06 209.17 0.85 205.43 0.85L205.43 0.85Q200.72 0.85 196.62-0.57 192.52-2 189.78-4.57L189.78-4.57 191.2-5.62Q193.69-3.37 197.42-2.14 201.16-0.9 205.43-0.9L205.43-0.9Q212.02-0.9 215.78-3.69 219.54-6.47 219.54-10.64L219.54-10.64Q219.54-15.06 216.32-17.65 213.1-20.24 207.14-20.24ZM260.31 0L260.31-35.16 262.07-35.16 262.07 0 260.31 0ZM225.13 0L225.13-35.16 226.89-35.16 226.89 0 225.13 0ZM256.8 0L256.8-35.16 258.55-35.16 258.55 0 256.8 0ZM253.28 0L253.28-35.16 255.04-35.16 255.04 0 253.28 0ZM249.77-22.85L249.77-35.16 251.52-35.16 251.52 0 249.77 0 249.77-14.06 237.44-14.06 237.44 0 235.68 0 235.68-35.16 237.44-35.16 237.44-22.85 249.77-22.85ZM232.16 0L232.16-35.16 233.92-35.16 233.92 0 232.16 0ZM228.65 0L228.65-35.16 230.4-35.16 230.4 0 228.65 0ZM237.44-15.82L249.77-15.82 249.77-17.58 237.44-17.58 237.44-15.82ZM237.44-19.34L249.77-19.34 249.77-21.09 237.44-21.09 237.44-19.34ZM297.66-38.67L271.29-38.67 271.29-40.43 297.66-40.43 297.66-38.67ZM297.66-35.16L271.29-35.16 271.29-36.91 297.66-36.91 297.66-35.16ZM278.32-31.64L271.29-31.64 271.29-33.4 297.66-33.4 297.66-31.64 290.63-31.64 290.63 0 288.87 0 288.87-31.64 287.11-31.64 287.11 0 285.36 0 285.36-31.64 283.6-31.64 283.6 0 281.84 0 281.84-31.64 280.08-31.64 280.08 0 278.32 0 278.32-31.64ZM336.82 0L336.82-35.16 338.58-35.16 338.58 0 336.82 0ZM301.64 0L301.64-35.16 303.4-35.16 303.4 0 301.64 0ZM333.3 0L333.3-35.16 335.06-35.16 335.06 0 333.3 0ZM329.79 0L329.79-35.16 331.54-35.16 331.54 0 329.79 0ZM326.27-22.85L326.27-35.16 328.03-35.16 328.03 0 326.27 0 326.27-14.06 313.94-14.06 313.94 0 312.18 0 312.18-35.16 313.94-35.16 313.94-22.85 326.27-22.85ZM308.67 0L308.67-35.16 310.43-35.16 310.43 0 308.67 0ZM305.15 0L305.15-35.16 306.91-35.16 306.91 0 305.15 0ZM313.94-15.82L326.27-15.82 326.27-17.58 313.94-17.58 313.94-15.82ZM313.94-19.34L326.27-19.34 326.27-21.09 313.94-21.09 313.94-19.34ZM351.95-35.16L351.95 0 350.19 0 350.19-35.16 351.95-35.16ZM348.44-35.16L348.44 0 346.68 0 346.68-35.16 348.44-35.16ZM344.92-35.16L344.92 0 343.16 0 343.16-35.16 344.92-35.16ZM355.47-13.21L355.47-8.79 372.29-8.79 372.29-7.03 355.47-7.03 355.47-5.27 372.29-5.27 372.29-3.52 355.47-3.52 355.47-1.76 372.29-1.76 372.29 0 353.71 0 353.71-35.16 372.29-35.16 372.29-33.4 355.47-33.4 355.47-31.64 372.29-31.64 372.29-29.88 355.47-29.88 355.47-28.13 372.29-28.13 372.29-26.37 355.47-26.37 355.47-22 371.31-22 371.31-20.24 355.47-20.24 355.47-18.48 371.31-18.48 371.31-16.72 355.47-16.72 355.47-14.97 371.31-14.97 371.31-13.21 355.47-13.21ZM395.6-17.38L395.6-19.14 405.8-19.14Q408.32-19.14 410.07-20.84 411.81-22.53 411.81-25.63L411.81-25.63Q411.81-27.95 409.98-29.8 408.15-31.64 405.8-31.64L405.8-31.64 390.72-31.64 390.72 0 388.96 0 388.96-33.4 405.8-33.4Q408.88-33.4 411.22-31.03 413.57-28.66 413.57-25.63L413.57-25.63Q413.57-21.9 411.3-19.64 409.03-17.38 405.8-17.38L405.8-17.38 395.6-17.38ZM395.6-13.87L395.6-15.63 405.8-15.63Q408.34-15.63 410.5-16.86 412.67-18.09 414-20.41 415.33-22.73 415.33-25.63L415.33-25.63Q415.33-29.39 412.46-32.28 409.59-35.16 405.8-35.16L405.8-35.16 387.2-35.16 387.2 0 385.44 0 385.44-36.91 405.8-36.91Q408.76-36.91 411.37-35.35 413.98-33.79 415.53-31.18 417.08-28.56 417.08-25.63L417.08-25.63Q417.08-22.31 415.52-19.59 413.96-16.87 411.38-15.37 408.81-13.87 405.8-13.87L405.8-13.87 395.6-13.87ZM395.6-10.35L395.6-12.11 405.8-12.11Q408.42-12.11 410.81-13.15 413.2-14.18 414.97-15.95 416.74-17.72 417.79-20.25 418.84-22.78 418.84-25.63L418.84-25.63Q418.84-29.05 417.06-32.07 415.28-35.08 412.26-36.88 409.25-38.67 405.8-38.67L405.8-38.67 383.69-38.67 383.69 0 381.93 0 381.93-40.43 405.8-40.43Q409.71-40.43 413.13-38.39 416.55-36.35 418.57-32.93 420.6-29.52 420.6-25.63L420.6-25.63Q420.6-22.17 419.4-19.25 418.21-16.33 416.18-14.4 414.15-12.48 411.47-11.41 408.78-10.35 405.8-10.35L405.8-10.35 395.6-10.35ZM394.23-28.13L394.23 0 392.47 0 392.47-29.88 405.8-29.88Q407.54-29.88 408.8-28.61 410.05-27.34 410.05-25.63L410.05-25.63Q410.05-20.9 405.8-20.9L405.8-20.9 395.6-20.9 395.6-22.66 405.8-22.66Q406.98-22.66 407.64-23.32 408.3-23.97 408.3-25.63L408.3-25.63Q408.3-26.71 407.57-27.42 406.85-28.13 405.8-28.13L405.8-28.13 394.23-28.13ZM437.89-22.55Q435.83-20.48 435.83-17.58 435.83-14.67 437.89-12.61 439.96-10.55 442.86-10.55 445.77-10.55 447.83-12.61 449.89-14.67 449.89-17.58 449.89-20.48 447.83-22.55 445.77-24.61 442.86-24.61 439.96-24.61 437.89-22.55ZM436.65-11.36Q434.07-13.94 434.07-17.58 434.07-21.22 436.65-23.79 439.23-26.37 442.86-26.37 446.5-26.37 449.08-23.79 451.65-21.22 451.65-17.58 451.65-13.94 449.08-11.36 446.5-8.79 442.86-8.79 439.23-8.79 436.65-11.36ZM435.4-25.02Q432.32-21.92 432.32-17.58 432.32-13.23 435.4-10.13 438.49-7.03 442.86-7.03 447.23-7.03 450.32-10.13 453.41-13.23 453.41-17.58 453.41-21.92 450.32-25.02 447.23-28.13 442.86-28.13 438.49-28.13 435.4-25.02ZM432.21-11.4Q430.56-14.23 430.56-17.58 430.56-20.92 432.21-23.75 433.85-26.59 436.69-28.23 439.52-29.88 442.86-29.88 446.21-29.88 449.04-28.23 451.87-26.59 453.52-23.75 455.17-20.92 455.17-17.58 455.17-14.23 453.52-11.4 451.87-8.57 449.04-6.92 446.21-5.27 442.86-5.27 439.52-5.27 436.69-6.92 433.85-8.57 432.21-11.4ZM429.91-23.03Q428.8-20.43 428.8-17.58 428.8-14.72 429.91-12.12 431.02-9.52 432.91-7.63 434.81-5.74 437.41-4.63 440.01-3.52 442.86-3.52 445.72-3.52 448.32-4.63 450.92-5.74 452.81-7.63 454.7-9.52 455.81-12.12 456.93-14.72 456.93-17.58 456.93-20.43 455.81-23.03 454.7-25.63 452.81-27.53 450.92-29.42 448.32-30.53 445.72-31.64 442.86-31.64 440.01-31.64 437.41-30.53 434.81-29.42 432.91-27.53 431.02-25.63 429.91-23.03ZM428.3-11.43Q427.04-14.36 427.04-17.58 427.04-20.8 428.3-23.73 429.56-26.66 431.67-28.77 433.78-30.88 436.71-32.14 439.64-33.4 442.86-33.4 446.09-33.4 449.02-32.14 451.95-30.88 454.06-28.77 456.17-26.66 457.43-23.73 458.68-20.8 458.68-17.58 458.68-14.36 457.43-11.43 456.17-8.5 454.06-6.38 451.95-4.27 449.02-3.02 446.09-1.76 442.86-1.76 439.64-1.76 436.71-3.02 433.78-4.27 431.67-6.38 429.56-8.5 428.3-11.43ZM426.68-24.4Q425.28-21.14 425.28-17.58 425.28-14.01 426.68-10.75 428.07-7.5 430.42-5.14 432.78-2.78 436.04-1.39 439.3 0 442.86 0 446.43 0 449.69-1.39 452.95-2.78 455.3-5.14 457.66-7.5 459.05-10.75 460.44-14.01 460.44-17.58 460.44-21.14 459.05-24.4 457.66-27.66 455.3-30.02 452.95-32.37 449.69-33.76 446.43-35.16 442.86-35.16 439.3-35.16 436.04-33.76 432.78-32.37 430.42-30.02 428.07-27.66 426.68-24.4ZM425.07-10.07Q423.53-13.65 423.53-17.58 423.53-21.51 425.07-25.09 426.6-28.66 429.19-31.25 431.78-33.84 435.36-35.38 438.93-36.91 442.86-36.91 446.79-36.91 450.37-35.38 453.95-33.84 456.53-31.25 459.12-28.66 460.66-25.09 462.2-21.51 462.2-17.58 462.2-13.65 460.66-10.07 459.12-6.49 456.53-3.91 453.95-1.32 450.37 0.22 446.79 1.76 442.86 1.76 438.93 1.76 435.36 0.22 431.78-1.32 429.19-3.91 426.6-6.49 425.07-10.07ZM500.81-11.32Q501.31-11.28 502.04-11.28 502.77-11.28 503.27-11.32 503.77-11.35 504.31-11.51 504.85-11.67 505.17-11.94 505.48-12.21 505.69-12.71 505.9-13.21 505.9-13.92L505.9-13.92 505.9-35.16 507.66-35.16 507.66-13.92Q507.66-9.52 502.04-9.52L502.04-9.52Q499.21-9.52 497.84-10.6L497.84-10.6Q497.65-9.64 497.38-8.91L497.38-8.91Q499.23-7.76 502.04-7.76L502.04-7.76Q505.31-7.76 507.36-9.29 509.41-10.82 509.41-13.92L509.41-13.92 509.41-35.16 511.17-35.16 511.17-13.92Q511.17-10.08 508.6-8.04 506.02-6.01 502.04-6.01L502.04-6.01Q498.94-6.01 496.72-7.28L496.72-7.28Q496.35-6.49 495.86-5.79L495.86-5.79Q498.52-4.25 502.04-4.25L502.04-4.25Q504.31-4.25 506.28-4.88 508.24-5.52 509.73-6.71 511.22-7.91 512.07-9.77 512.93-11.62 512.93-13.92L512.93-13.92 512.93-35.16 514.69-35.16 514.69-13.92Q514.69-10.4 512.97-7.76 511.24-5.13 508.4-3.81 505.56-2.49 502.04-2.49L502.04-2.49Q497.94-2.49 494.81-4.37L494.81-4.37Q494.13-3.59 493.57-3.1L493.57-3.1Q497.21-0.73 502.04-0.73L502.04-0.73Q506.02-0.73 509.27-2.29 512.51-3.86 514.48-6.9 516.44-9.94 516.44-13.92L516.44-13.92 516.44-35.16 518.2-35.16 518.2-13.92Q518.2-10.55 516.92-7.71 515.64-4.88 513.45-2.98 511.27-1.07 508.31-0.02 505.36 1.03 502.04 1.03L502.04 1.03Q496.23 1.03 492.1-1.95L492.1-1.95Q487.83 1.03 482.02 1.03L482.02 1.03Q478.7 1.03 475.75-0.02 472.79-1.07 470.61-2.98 468.42-4.88 467.14-7.71 465.86-10.55 465.86-13.92L465.86-13.92 465.86-35.16 467.62-35.16 467.62-13.92Q467.62-10.91 468.75-8.4 469.89-5.88 471.84-4.22 473.79-2.56 476.42-1.65 479.04-0.73 482.02-0.73L482.02-0.73Q485.9-0.73 489.22-2.5 492.54-4.27 494.48-7.31 496.42-10.35 496.42-13.92L496.42-13.92 496.42-35.16 498.18-35.16 498.18-13.92Q498.18-13.21 498.39-12.71 498.6-12.21 498.92-11.94 499.23-11.67 499.77-11.51 500.31-11.35 500.81-11.32ZM485.88-35.16L487.64-35.16 487.64-13.92Q487.64-9.52 482.02-9.52 476.41-9.52 476.41-13.92L476.41-13.92 476.41-35.16 478.16-35.16 478.16-13.92Q478.16-13.21 478.37-12.71 478.58-12.21 478.9-11.94 479.21-11.67 479.75-11.51 480.29-11.35 480.79-11.32 481.29-11.28 482.02-11.28 482.75-11.28 483.25-11.32 483.75-11.35 484.29-11.51 484.83-11.67 485.15-11.94 485.46-12.21 485.67-12.71 485.88-13.21 485.88-13.92L485.88-13.92 485.88-35.16ZM489.39-35.16L491.15-35.16 491.15-13.92Q491.15-10.08 488.58-8.04 486-6.01 482.02-6.01 478.04-6.01 475.47-8.04 472.89-10.08 472.89-13.92L472.89-13.92 472.89-35.16 474.65-35.16 474.65-13.92Q474.65-10.82 476.7-9.29 478.75-7.76 482.02-7.76 485.29-7.76 487.34-9.29 489.39-10.82 489.39-13.92L489.39-13.92 489.39-35.16ZM492.91-35.16L494.67-35.16 494.67-13.92Q494.67-10.4 492.95-7.76 491.22-5.13 488.38-3.81 485.54-2.49 482.02-2.49 478.51-2.49 475.66-3.81 472.82-5.13 471.1-7.76 469.37-10.4 469.37-13.92L469.37-13.92 469.37-35.16 471.13-35.16 471.13-13.92Q471.13-11.62 471.99-9.77 472.84-7.91 474.33-6.71 475.82-5.52 477.78-4.88 479.75-4.25 482.02-4.25 484.29-4.25 486.26-4.88 488.22-5.52 489.71-6.71 491.2-7.91 492.05-9.77 492.91-11.62 492.91-13.92L492.91-13.92 492.91-35.16ZM531.41-35.16L531.41 0 529.65 0 529.65-35.16 531.41-35.16ZM527.89-35.16L527.89 0 526.13 0 526.13-35.16 527.89-35.16ZM524.38-35.16L524.38 0 522.62 0 522.62-35.16 524.38-35.16ZM534.92-13.21L534.92-8.79 551.74-8.79 551.74-7.03 534.92-7.03 534.92-5.27 551.74-5.27 551.74-3.52 534.92-3.52 534.92-1.76 551.74-1.76 551.74 0 533.17 0 533.17-35.16 551.74-35.16 551.74-33.4 534.92-33.4 534.92-31.64 551.74-31.64 551.74-29.88 534.92-29.88 534.92-28.13 551.74-28.13 551.74-26.37 534.92-26.37 534.92-22 550.77-22 550.77-20.24 534.92-20.24 534.92-18.48 550.77-18.48 550.77-16.72 534.92-16.72 534.92-14.97 550.77-14.97 550.77-13.21 534.92-13.21ZM569.25-15.04L569.25-16.8 579.84-16.8Q581.94-16.8 583.41-18.12 584.87-19.43 584.87-21.83L584.87-21.83Q584.87-23.58 583.35-24.98 581.82-26.37 579.84-26.37L579.84-26.37 564.75-26.37 564.75 0 563 0 563-28.13 579.84-28.13Q582.55-28.13 584.59-26.22 586.63-24.32 586.63-21.83L586.63-21.83Q586.63-18.73 584.65-16.88 582.67-15.04 579.84-15.04L579.84-15.04 569.25-15.04ZM569.25-11.52L569.25-13.28 579.84-13.28Q583.36-13.28 585.87-15.67 588.39-18.07 588.39-21.83L588.39-21.83Q588.39-25.02 585.82-27.45 583.26-29.88 579.84-29.88L579.84-29.88 561.24-29.88 561.24 0 559.48 0 559.48-31.64 579.84-31.64Q583.99-31.64 587.07-28.7 590.15-25.76 590.15-21.83L590.15-21.83Q590.15-17.43 587.11-14.48 584.07-11.52 579.84-11.52L579.84-11.52 569.25-11.52ZM569.25-8.01L569.25-9.77 579.84-9.77Q583.09-9.77 585.85-11.33 588.61-12.89 590.26-15.67 591.9-18.46 591.9-21.83L591.9-21.83Q591.9-24.88 590.27-27.55 588.63-30.22 585.84-31.81 583.04-33.4 579.84-33.4L579.84-33.4 557.72-33.4 557.72 0 555.97 0 555.97-35.16 579.84-35.16Q582.6-35.16 585.15-34.07 587.7-32.98 589.56-31.19 591.42-29.39 592.54-26.93 593.66-24.46 593.66-21.83L593.66-21.83Q593.66-17.55 591.71-14.37 589.75-11.18 586.46-9.52L586.46-9.52 590.15 0 588.27 0 584.77-8.81Q584.12-8.59 583.24-8.37L583.24-8.37 586.53 0 584.65 0 581.43-8.08Q580.67-8.01 579.84-8.01L579.84-8.01 582.94 0 581.09 0 578.01-8.01 576.42-8.01 579.38 0 577.52 0 574.54-8.01 569.25-8.01ZM568.27-22.85L568.27 0 566.51 0 566.51-24.61 579.84-24.61Q581.21-24.61 582.16-23.79 583.11-22.97 583.11-21.83L583.11-21.83Q583.11-18.55 579.84-18.55L579.84-18.55 569.25-18.55 569.25-20.31 579.84-20.31Q581.36-20.31 581.36-21.83L581.36-21.83Q581.36-22.24 580.9-22.55 580.45-22.85 579.84-22.85L579.84-22.85 568.27-22.85ZM617.19-27.05Q614.36-24.22 614.36-20.21 614.36-16.21 617.19-13.38 620.02-10.55 624.03-10.55 628.03-10.55 630.86-13.38 633.7-16.21 633.7-20.21 633.7-24.22 630.86-27.05 628.03-29.88 624.03-29.88 620.02-29.88 617.19-27.05ZM613.5-15.78Q612.6-17.9 612.6-20.21 612.6-22.53 613.5-24.65 614.41-26.76 615.95-28.3 617.48-29.83 619.6-30.74 621.71-31.64 624.03-31.64 626.35-31.64 628.46-30.74 630.57-29.83 632.11-28.3 633.65-26.76 634.55-24.65 635.45-22.53 635.45-20.21 635.45-17.9 634.55-15.78 633.65-13.67 632.11-12.13 630.57-10.6 628.46-9.69 626.35-8.79 624.03-8.79 621.71-8.79 619.6-9.69 617.48-10.6 615.95-12.13 614.41-13.67 613.5-15.78ZM612.61-26.83Q610.84-23.8 610.84-20.21 610.84-16.63 612.61-13.6 614.38-10.57 617.41-8.8 620.44-7.03 624.03-7.03 627.62-7.03 630.64-8.8 633.67-10.57 635.44-13.6 637.21-16.63 637.21-20.21 637.21-23.8 635.44-26.83 633.67-29.86 630.64-31.63 627.62-33.4 624.03-33.4 620.44-33.4 617.41-31.63 614.38-29.86 612.61-26.83ZM611.09-12.72Q609.09-16.16 609.09-20.21 609.09-24.27 611.09-27.71 613.09-31.15 616.53-33.15 619.97-35.16 624.03-35.16 628.08-35.16 631.52-33.15 634.96-31.15 636.97-27.71 638.97-24.27 638.97-20.21 638.97-16.16 636.97-12.72 634.96-9.28 631.52-7.28 628.08-5.27 624.03-5.27 619.97-5.27 616.53-7.28 613.09-9.28 611.09-12.72ZM608.65-26.71Q607.33-23.61 607.33-20.21 607.33-16.82 608.65-13.72 609.96-10.62 612.2-8.39 614.43-6.15 617.53-4.83 620.63-3.52 624.03-3.52 627.42-3.52 630.52-4.83 633.62-6.15 635.86-8.39 638.09-10.62 639.41-13.72 640.73-16.82 640.73-20.21 640.73-23.61 639.41-26.71 638.09-29.81 635.86-32.04 633.62-34.28 630.52-35.6 627.42-36.91 624.03-36.91 620.63-36.91 617.53-35.6 614.43-34.28 612.2-32.04 609.96-29.81 608.65-26.71ZM608.05-10.96Q605.57-15.21 605.57-20.21 605.57-25.22 608.05-29.47 610.53-33.72 614.77-36.19 619.02-38.67 624.03-38.67 629.03-38.67 633.28-36.19 637.53-33.72 640.01-29.47 642.48-25.22 642.48-20.21 642.48-15.21 640.01-10.96 637.53-6.71 633.28-4.24 629.03-1.76 624.03-1.76 619.02-1.76 614.77-4.24 610.53-6.71 608.05-10.96ZM605.41-28.06Q603.81-24.32 603.81-20.21 603.81-16.11 605.41-12.37 607.01-8.62 609.72-5.91 612.43-3.2 616.18-1.6 619.93 0 624.03 0 628.13 0 631.88-1.6 635.62-3.2 638.33-5.91 641.04-8.62 642.64-12.37 644.24-16.11 644.24-20.21 644.24-24.32 642.64-28.06 641.04-31.81 638.33-34.52 635.62-37.23 631.88-38.83 628.13-40.43 624.03-40.43 619.93-40.43 616.18-38.83 612.43-37.23 609.72-34.52 607.01-31.81 605.41-28.06ZM603.8-11.68Q602.05-15.75 602.05-20.21 602.05-24.68 603.8-28.75 605.55-32.81 608.49-35.75 611.43-38.7 615.49-40.44 619.56-42.19 624.03-42.19 628.5-42.19 632.56-40.44 636.62-38.7 639.57-35.75 642.51-32.81 644.25-28.75 646-24.68 646-20.21 646-15.75 644.25-11.68 642.51-7.62 639.57-4.68 636.62-1.73 632.56 0.01 628.5 1.76 624.03 1.76 619.56 1.76 615.49 0.01 611.43-1.73 608.49-4.68 605.55-7.62 603.8-11.68ZM661.94-12.21L661.94 0 660.18 0 660.18-35.16 676.95-35.16 676.95-33.4 661.94-33.4 661.94-31.64 676.95-31.64 676.95-29.88 661.94-29.88 661.94-28.13 676.95-28.13 676.95-26.37 661.94-26.37 661.94-21 675.78-21 675.78-19.24 661.94-19.24 661.94-17.48 675.78-17.48 675.78-15.72 661.94-15.72 661.94-13.96 675.78-13.96 675.78-12.21 661.94-12.21ZM658.42-35.16L658.42 0 656.67 0 656.67-35.16 658.42-35.16ZM654.91-35.16L654.91 0 653.15 0 653.15-35.16 654.91-35.16ZM651.39-35.16L651.39 0 649.64 0 649.64-35.16 651.39-35.16ZM690.52-40.43L697.9-12.43 697.07-8.96 688.72-40.43 690.52-40.43ZM694.14-40.43L699.73-19.19 698.82-15.82 692.35-40.43 694.14-40.43ZM697.8-40.43L701.56-26.2 700.63-22.78 695.97-40.43 697.8-40.43ZM712.84-16.38L708.52 0 706.69 0 717.38-40.38 717.35-40.43 719.21-40.43 719.21-40.38 723.97-23.97 728.34-40.43 730.17-40.43 719.45 0 717.62 0 712.84-16.38ZM715.55-40.43L704.85 0 703.05 0 713.74-40.43 715.55-40.43ZM711.91-40.43L701.22 0 699.41 0 710.13-40.43 711.91-40.43ZM741.09-40.43L730.39 0 728.56 0 739.25-40.43 741.09-40.43ZM737.42-40.43L726.73 0 724.92 0 735.62-40.43 737.42-40.43ZM733.79-40.43L723.09 0 721.29 0 732-40.43 733.79-40.43ZM686.89-40.43L696.68-3.47 706.47-40.43 708.3-40.43 697.58 0 695.75 0 685.05-40.43 686.89-40.43ZM714.67-23.27L713.77-19.82 718.5-3.32 719.43-6.81 714.67-23.27ZM716.5-30.18L715.57-26.71 720.33-10.25 721.26-13.7 716.5-30.18ZM718.33-37.06L717.38-33.54 722.16-17.09 723.07-20.56 718.33-37.06ZM755.28-22.55Q753.22-20.48 753.22-17.58 753.22-14.67 755.28-12.61 757.34-10.55 760.25-10.55 763.15-10.55 765.22-12.61 767.28-14.67 767.28-17.58 767.28-20.48 765.22-22.55 763.15-24.61 760.25-24.61 757.34-24.61 755.28-22.55ZM754.03-11.36Q751.46-13.94 751.46-17.58 751.46-21.22 754.03-23.79 756.61-26.37 760.25-26.37 763.89-26.37 766.46-23.79 769.04-21.22 769.04-17.58 769.04-13.94 766.46-11.36 763.89-8.79 760.25-8.79 756.61-8.79 754.03-11.36ZM752.79-25.02Q749.7-21.92 749.7-17.58 749.7-13.23 752.79-10.13 755.88-7.03 760.25-7.03 764.62-7.03 767.71-10.13 770.79-13.23 770.79-17.58 770.79-21.92 767.71-25.02 764.62-28.13 760.25-28.13 755.88-28.13 752.79-25.02ZM749.59-11.4Q747.94-14.23 747.94-17.58 747.94-20.92 749.59-23.75 751.24-26.59 754.07-28.23 756.9-29.88 760.25-29.88 763.59-29.88 766.42-28.23 769.26-26.59 770.9-23.75 772.55-20.92 772.55-17.58 772.55-14.23 770.9-11.4 769.26-8.57 766.42-6.92 763.59-5.27 760.25-5.27 756.9-5.27 754.07-6.92 751.24-8.57 749.59-11.4ZM747.3-23.03Q746.19-20.43 746.19-17.58 746.19-14.72 747.3-12.12 748.41-9.52 750.3-7.63 752.19-5.74 754.79-4.63 757.39-3.52 760.25-3.52 763.1-3.52 765.7-4.63 768.3-5.74 770.2-7.63 772.09-9.52 773.2-12.12 774.31-14.72 774.31-17.58 774.31-20.43 773.2-23.03 772.09-25.63 770.2-27.53 768.3-29.42 765.7-30.53 763.1-31.64 760.25-31.64 757.39-31.64 754.79-30.53 752.19-29.42 750.3-27.53 748.41-25.63 747.3-23.03ZM745.68-11.43Q744.43-14.36 744.43-17.58 744.43-20.8 745.68-23.73 746.94-26.66 749.05-28.77 751.17-30.88 754.1-32.14 757.03-33.4 760.25-33.4 763.47-33.4 766.4-32.14 769.33-30.88 771.44-28.77 773.55-26.66 774.81-23.73 776.07-20.8 776.07-17.58 776.07-14.36 774.81-11.43 773.55-8.5 771.44-6.38 769.33-4.27 766.4-3.02 763.47-1.76 760.25-1.76 757.03-1.76 754.1-3.02 751.17-4.27 749.05-6.38 746.94-8.5 745.68-11.43ZM744.06-24.4Q742.67-21.14 742.67-17.58 742.67-14.01 744.06-10.75 745.45-7.5 747.81-5.14 750.16-2.78 753.42-1.39 756.68 0 760.25 0 763.81 0 767.07-1.39 770.33-2.78 772.69-5.14 775.04-7.5 776.43-10.75 777.83-14.01 777.83-17.58 777.83-21.14 776.43-24.4 775.04-27.66 772.69-30.02 770.33-32.37 767.07-33.76 763.81-35.16 760.25-35.16 756.68-35.16 753.42-33.76 750.16-32.37 747.81-30.02 745.45-27.66 744.06-24.4ZM742.45-10.07Q740.91-13.65 740.91-17.58 740.91-21.51 742.45-25.09 743.99-28.66 746.58-31.25 749.16-33.84 752.74-35.38 756.32-36.91 760.25-36.91 764.18-36.91 767.76-35.38 771.33-33.84 773.92-31.25 776.51-28.66 778.05-25.09 779.58-21.51 779.58-17.58 779.58-13.65 778.05-10.07 776.51-6.49 773.92-3.91 771.33-1.32 767.76 0.22 764.18 1.76 760.25 1.76 756.32 1.76 752.74 0.22 749.16-1.32 746.58-3.91 743.99-6.49 742.45-10.07ZM796.79-15.04L796.79-16.8 807.39-16.8Q809.49-16.8 810.95-18.12 812.42-19.43 812.42-21.83L812.42-21.83Q812.42-23.58 810.89-24.98 809.37-26.37 807.39-26.37L807.39-26.37 792.3-26.37 792.3 0 790.54 0 790.54-28.13 807.39-28.13Q810.1-28.13 812.14-26.22 814.18-24.32 814.18-21.83L814.18-21.83Q814.18-18.73 812.2-16.88 810.22-15.04 807.39-15.04L807.39-15.04 796.79-15.04ZM796.79-11.52L796.79-13.28 807.39-13.28Q810.9-13.28 813.42-15.67 815.93-18.07 815.93-21.83L815.93-21.83Q815.93-25.02 813.37-27.45 810.81-29.88 807.39-29.88L807.39-29.88 788.79-29.88 788.79 0 787.03 0 787.03-31.64 807.39-31.64Q811.54-31.64 814.62-28.7 817.69-25.76 817.69-21.83L817.69-21.83Q817.69-17.43 814.65-14.48 811.61-11.52 807.39-11.52L807.39-11.52 796.79-11.52ZM796.79-8.01L796.79-9.77 807.39-9.77Q810.64-9.77 813.39-11.33 816.15-12.89 817.8-15.67 819.45-18.46 819.45-21.83L819.45-21.83Q819.45-24.88 817.81-27.55 816.18-30.22 813.38-31.81 810.59-33.4 807.39-33.4L807.39-33.4 785.27-33.4 785.27 0 783.51 0 783.51-35.16 807.39-35.16Q810.15-35.16 812.7-34.07 815.25-32.98 817.11-31.19 818.96-29.39 820.08-26.93 821.21-24.46 821.21-21.83L821.21-21.83Q821.21-17.55 819.25-14.37 817.3-11.18 814-9.52L814-9.52 817.69 0 815.81 0 812.32-8.81Q811.66-8.59 810.78-8.37L810.78-8.37 814.08 0 812.2 0 808.98-8.08Q808.22-8.01 807.39-8.01L807.39-8.01 810.49 0 808.63 0 805.56-8.01 803.97-8.01 806.92 0 805.07 0 802.09-8.01 796.79-8.01ZM795.82-22.85L795.82 0 794.06 0 794.06-24.61 807.39-24.61Q808.76-24.61 809.71-23.79 810.66-22.97 810.66-21.83L810.66-21.83Q810.66-18.55 807.39-18.55L807.39-18.55 796.79-18.55 796.79-20.31 807.39-20.31Q808.9-20.31 808.9-21.83L808.9-21.83Q808.9-22.24 808.45-22.55 808-22.85 807.39-22.85L807.39-22.85 795.82-22.85ZM845.37-10.55L835.63-10.55 835.63-24.61Q835.63-24.61 845.37-24.61L845.37-24.61Q848.08-24.61 850.03-22.56 851.97-20.51 851.97-17.63L851.97-17.63Q851.97-14.65 850.04-12.6 848.11-10.55 845.37-10.55L845.37-10.55ZM837.39-22.85L837.39-12.3 845.37-12.3Q847.35-12.3 848.76-13.84 850.16-15.38 850.16-17.63L850.16-17.63Q850.16-19.78 848.76-21.31 847.35-22.85 845.37-22.85L845.37-22.85 837.39-22.85ZM833.88-26.37L833.88-8.79 845.37-8.79Q848.84-8.79 851.31-11.36 853.77-13.94 853.77-17.63L853.77-17.63Q853.77-21.24 851.29-23.8 848.82-26.37 845.37-26.37L845.37-26.37 833.88-26.37ZM845.37-7.03L832.12-7.03 832.12-28.13 845.37-28.13Q849.55-28.13 852.56-25.04 855.58-21.95 855.58-17.63L855.58-17.63Q855.58-13.21 852.58-10.12 849.57-7.03 845.37-7.03L845.37-7.03ZM830.36-29.88L830.36-5.27 845.37-5.27Q848.6-5.27 851.36-6.91 854.11-8.54 855.75-11.4 857.39-14.26 857.39-17.63L857.39-17.63Q857.39-20.92 855.75-23.75 854.11-26.59 851.34-28.23 848.57-29.88 845.37-29.88L845.37-29.88 830.36-29.88ZM845.37-3.52L828.6-3.52 828.6-31.64 845.37-31.64Q849.06-31.64 852.25-29.76 855.43-27.88 857.31-24.65 859.19-21.41 859.19-17.63L859.19-17.63Q859.19-13.79 857.31-10.53 855.43-7.28 852.25-5.4 849.06-3.52 845.37-3.52L845.37-3.52ZM826.84-33.4L826.84-1.76 845.37-1.76Q849.55-1.76 853.14-3.87 856.73-5.98 858.86-9.64 861-13.31 861-17.63L861-17.63Q861-21.88 858.86-25.52 856.73-29.17 853.13-31.29 849.52-33.4 845.37-33.4L845.37-33.4 826.84-33.4ZM845.37 0L845.37 0 825.09 0 825.09-35.16 845.37-35.16Q850.01-35.16 854.03-32.8 858.05-30.44 860.43-26.4 862.81-22.36 862.81-17.63L862.81-17.63Q862.81-14.04 861.4-10.77 860-7.5 857.64-5.14 855.29-2.78 852.06-1.39 848.84 0 845.37 0ZM882.9-16.72L882.9-16.72 880.11-16.72Q874.99-16.72 872.23-18.81 869.47-20.9 869.47-24.56L869.47-24.56Q869.47-27.98 872.72-30.26 875.96-32.54 881.82-32.54L881.82-32.54Q885.73-32.54 889.11-31.47 892.49-30.4 894.74-28.44L894.74-28.44 893.37-27.34Q891.37-28.98 888.34-29.88 885.31-30.79 881.82-30.79L881.82-30.79Q876.67-30.79 873.95-29.03 871.23-27.27 871.23-24.56L871.23-24.56Q871.23-21.63 873.46-20.06 875.69-18.48 880.11-18.48L880.11-18.48 882.8-18.48Q888-18.48 890.77-16.39 893.54-14.31 893.54-10.64L893.54-10.64Q893.54-7.23 890.29-4.94 887.05-2.66 881.19-2.66L881.19-2.66Q877.28-2.66 873.9-3.74 870.52-4.81 868.27-6.76L868.27-6.76 869.64-7.86Q871.64-6.23 874.67-5.32 877.7-4.42 881.19-4.42L881.19-4.42Q886.34-4.42 889.06-6.18 891.78-7.93 891.78-10.64L891.78-10.64Q891.78-13.57 889.55-15.15 887.32-16.72 882.9-16.72ZM882.9-13.21L882.9-13.21 880.11-13.21Q873.33-13.21 869.64-16.3 865.95-19.38 865.95-24.56L865.95-24.56Q865.95-26.93 867-29 868.05-31.08 870.02-32.65 871.98-34.23 875.04-35.14 878.09-36.06 881.82-36.06L881.82-36.06Q886.53-36.06 890.64-34.63 894.74-33.2 897.47-30.64L897.47-30.64 896.06-29.59Q893.57-31.84 889.83-33.07 886.09-34.3 881.82-34.3L881.82-34.3Q875.23-34.3 871.47-31.52 867.71-28.74 867.71-24.56L867.71-24.56Q867.71-20.14 870.93-17.55 874.16-14.97 880.11-14.97L880.11-14.97 882.8-14.97Q890.03-14.97 890.03-10.64L890.03-10.64Q890.03-8.69 887.82-7.43 885.61-6.18 881.19-6.18L881.19-6.18Q878.09-6.18 875.43-6.9 872.76-7.62 871.03-8.96L871.03-8.96 872.42-10.03Q875.47-7.93 881.19-7.93L881.19-7.93Q884.85-7.93 886.56-8.69 888.27-9.45 888.27-10.64L888.27-10.64Q888.27-12.04 887.07-12.62 885.87-13.21 882.9-13.21ZM882.9-20.24L882.9-20.24 880.11-20.24Q872.98-20.24 872.98-24.56L872.98-24.56Q872.98-26.51 875.19-27.77 877.4-29.03 881.82-29.03L881.82-29.03Q884.92-29.03 887.58-28.31 890.25-27.59 891.98-26.25L891.98-26.25 890.59-25.17Q887.54-27.27 881.82-27.27L881.82-27.27Q878.16-27.27 876.45-26.51 874.74-25.76 874.74-24.56L874.74-24.56Q874.74-23.17 875.94-22.58 877.13-22 880.11-22L880.11-22 882.9-22Q889.68-22 893.37-18.91 897.06-15.82 897.06-10.64L897.06-10.64Q897.06-8.28 896.01-6.2 894.96-4.13 892.99-2.55 891.03-0.98 887.97-0.06 884.92 0.85 881.19 0.85L881.19 0.85Q876.48 0.85 872.37-0.57 868.27-2 865.54-4.57L865.54-4.57 866.95-5.62Q869.44-3.37 873.18-2.14 876.92-0.9 881.19-0.9L881.19-0.9Q887.78-0.9 891.54-3.69 895.3-6.47 895.3-10.64L895.3-10.64Q895.3-15.06 892.08-17.65 888.85-20.24 882.9-20.24Z" opacity="1" transform="matrix(1,0,0,1,0,0)" fill="#b19dd0" class="undefined-text-1" data-fill-palette-color="secondary" id="text-1"></path></svg></g></svg></g></svg></g></svg></g><g></g></svg></g><defs></defs></svg><rect width="338.8968" height="94.17655747074068" fill="none" stroke="none" visibility="hidden"></rect></g></svg></g></svg>